<svg xmlns="http://www.w3.org/2000/svg" viewBox="0 0 163.06420550028008 115.79478166763566" preserveAspectRatio="xMidYMid meet" class="css-j4agf4" id="gceheccf"><defs id="SvgjsDefs1001"/><g id="SvgjsG1007" featurekey="5TMTKC-0" transform="matrix(1.2061956423712048,0,0,1.2061956423712048,-12.897749732972894,0)" fill="currentColor"><g xmlns="http://www.w3.org/2000/svg"><path d="M16.238,69.221c-2.861,7.646-5.035-23.379,1.227-29.467c0.124,3.205,1.203,3.803,2.01,6.627   c1.631-5.386,1.773-11.406,3.951-16.665c2.071-5.004,4.641-8.813,8.764-12.097c0.756,1.269,1.221,2.633,1.957,3.866   C38.679,5.734,55.402,7.111,66.637,0c0.372,2.816-1.193,5.962-1.49,8.763c-0.331,3.108-0.401,6.089-1.54,8.94   c-2.854,7.146-8.21,8.858-13.702,13.127c2.551-0.254,4.816-0.626,7.418-0.709c-4.278,1.021-4.527,5.329-6.11,8.227   c-2.351,4.303-5.308,4.836-9.206,6.949c2.374-0.488,5.678,0.698,7.334,2.185c-5.66,3.822-6.623,10.742-11.574,14.954   c-4.041,3.44-14.17,6.236-15.429,11.627l-9.261,16.238c0,0,17.01-56.831,36.569-70.855C49.646,19.445,35.067,18.889,16.238,69.221z   "/><g><path d="M17.18,96c-2.063,0-4.154-0.689-5.998-2.848c-0.732-0.857-0.631-2.146,0.227-2.879c0.858-0.734,2.147-0.632,2.88,0.227    c1.749,2.047,3.542,1.685,7.517,0.302c0.775-0.271,1.578-0.55,2.392-0.784c2.288-0.659,4.58-1.396,6.796-2.108    c6.469-2.08,13.158-4.231,20.396-4.649c2.004-0.104,3.694,0.566,5.189,1.166c0.838,0.337,1.631,0.654,2.411,0.813    c2.658,0.54,4.699,0.688,6.24,0.449c1.946-0.302,3.855-1.731,5.701-3.115c0.644-0.483,1.276-0.956,1.905-1.386    c0.313-0.212,0.641-0.442,0.981-0.684c2.698-1.896,6.057-4.274,9.636-3.926c1.123,0.104,1.949,1.099,1.846,2.223    s-1.1,1.947-2.223,1.846c-2.092-0.203-4.76,1.688-6.908,3.2c-0.357,0.251-0.702,0.494-1.03,0.718    c-0.581,0.396-1.164,0.834-1.757,1.277c-2.143,1.605-4.571,3.426-7.527,3.884c-2.027,0.313-4.539,0.155-7.679-0.482    c-1.146-0.233-2.149-0.637-3.12-1.026c-1.256-0.505-2.344-0.94-3.432-0.878c-6.718,0.388-12.868,2.366-19.379,4.46    c-2.246,0.722-4.568,1.468-6.916,2.145c-0.725,0.209-1.453,0.465-2.182,0.718C21.388,95.272,19.299,96,17.18,96z"/></g></g></g><g id="SvgjsG1008" featurekey="sloganFeature-0" transform="matrix(1.1138587673033056,0,0,1.1138587673033056,110.00000013278232,66.58668926365894)" fill="currentColor"><path d="M6.64 20 l-0.02 -6.98 l-5.48 0 l0.02 6.98 l-1.16 0 l0 -15 l1.16 0 l-0.02 6.96 l5.48 0 l0.02 -6.96 l1.18 0 l0 15 l-1.18 0 z M9.58 20 l0 -15 l1.28 0 l0 15 l-1.28 0 z M12.8 21.02 l0 -1.88 l0 -0.68 l1.58 0 l0 1.46 z M25.76 16.22 c-0.01334 0.66666 -0.076582 1.25 -0.18992 1.75 s-0.30668 0.91334 -0.58002 1.24 s-0.63334 0.57 -1.08 0.73 s-1.01 0.24 -1.69 0.24 c-1.1733 0 -2.0266 -0.32666 -2.56 -0.98 s-0.8 -1.6467 -0.8 -2.98 l0 -7.4 c0 -1.3333 0.27 -2.3266 0.81 -2.98 s1.4633 -0.98 2.77 -0.98 c1.1733 0 2.0134 0.32666 2.52 0.98 s0.77332 1.6467 0.79998 2.98 l0.02 0.92 l-0.92 0 l-0.02 -1.16 c0 -0.33334 -0.03334 -0.67 -0.1 -1.01 s-0.18666 -0.65 -0.36 -0.93 s-0.41668 -0.50666 -0.73002 -0.68 s-0.73 -0.26 -1.25 -0.26 c-0.50666 0 -0.93 0.08 -1.27 0.24 s-0.61 0.38 -0.81 0.66 s-0.33666 0.61 -0.41 0.99 s-0.11 0.79 -0.11 1.23 l0.04 7.5 c0 0.92 0.17 1.64 0.51 2.16 s0.96334 0.78 1.87 0.78 c0.52 0 0.95 -0.07 1.29 -0.21 s0.60666 -0.33666 0.8 -0.59 s0.33 -0.56 0.41 -0.92 s0.12 -0.75334 0.12 -1.18 l0.02 -1.3 l0.92 0 z M37.06 20 l0 -12.72 l-3.62 8.66 l-1.12 -0.02 l-3.54 -8.66 l0 12.74 l-0.98 0 l0 -15 l1.04 0 l4.06 9.76 l4.08 -9.76 l1.06 0 l0 15 l-0.98 0 z M43.82000000000001 20.18 c-0.65334 0 -1.2335 -0.086738 -1.7401 -0.26008 s-0.93332 -0.45 -1.28 -0.83 s-0.60332 -0.87666 -0.76998 -1.49 s-0.23666 -1.3533 -0.21 -2.22 l1.2 0 c0 0.42666 0.02 0.87 0.06 1.33 s0.14666 0.88 0.32 1.26 s0.43668 0.69 0.79002 0.93 s0.84334 0.36 1.47 0.36 c0.53334 0 0.98668 -0.08 1.36 -0.24 s0.67668 -0.37334 0.91002 -0.64 s0.39668 -0.58 0.49002 -0.94 s0.14 -0.73334 0.14 -1.12 c0 -0.45334 -0.08334 -0.85 -0.25 -1.19 s-0.38666 -0.64334 -0.66 -0.91 s-0.59334 -0.50332 -0.96 -0.70998 s-0.75 -0.39 -1.15 -0.55 c-0.64 -0.25334 -1.2 -0.50334 -1.68 -0.75 s-0.87334 -0.52332 -1.18 -0.82998 s-0.53666 -0.66332 -0.69 -1.07 s-0.23 -0.90332 -0.23 -1.49 c0 -1.3333 0.35 -2.3266 1.05 -2.98 s1.7033 -0.98 3.01 -0.98 c1.1333 0 2.03 0.33 2.69 0.99 s0.99 1.65 0.99 2.97 l0 1.1 l-1.12 0 l0 -1.2 c0 -0.41334 -0.05 -0.79668 -0.15 -1.15 s-0.25666 -0.66334 -0.47 -0.93 s-0.48334 -0.47666 -0.81 -0.63 s-0.71666 -0.23 -1.17 -0.23 c-1.0667 0 -1.83 0.28 -2.29 0.84 s-0.67 1.3133 -0.63 2.26 c0.01334 0.41334 0.09 0.76668 0.23 1.06 s0.32666 0.55 0.56 0.77 s0.51334 0.41666 0.84 0.59 s0.69 0.34668 1.09 0.52002 c0.46666 0.2 0.93 0.41334 1.39 0.64 s0.89 0.50666 1.29 0.84 c0.4 0.34666 0.73 0.75 0.99 1.21 s0.39 1.03 0.39 1.71 c0 1.32 -0.33666 2.31 -1.01 2.97 s-1.61 0.99 -2.81 0.99 z"/></g><g id="SvgjsG1009" featurekey="nameLeftFeature-0" transform="matrix(1,0,0,1,119,44)" fill="currentColor"><path d=""/></g><g id="SvgjsG1010" featurekey="nameRightFeature-0" transform="matrix(2.4,0,0,2.4,126.2,14)" fill="currentColor"><path d="M5.5 16.5 l0 3.5 l-3.5 0 l0 -15 l3.5 0 l0 8 l2.5 0 l0 -8 l3.5 0 l0 15 l-3.5 0 l0 -3.5 l-2.5 0 z M3.5 5.5 l-1 0 l0 14 l1 0 l0 -5 l5.64 0 l-1 -1 l-4.64 0 l0 -8 z M4 13 l1 0 l0 -7.5 l-1 0 l0 7.5 z M5.4 16 l4.6 0 l0 3.5 l1 0 l0 -14 l-1 0 l0 9.5 l-5.66 0 z M8.5 5.5 l0 7.64 l1 0.96 l0 -8.6 l-1 0 z M5 19.5 l0 -3.14 l-1 -1 l0 4.14 l1 0 z M9.5 16.5 l-1 0 l0 3 l1 0 l0 -3 z"/></g></svg>