<svg xmlns="http://www.w3.org/2000/svg" class="css-ze2te4 css-qd6ojx" viewBox="0 0 90 115.79478166763566"><g transform="translate(-12.897749732972894, 0) scale(1.2061956423712048)" class="css-1tyenpt" fill="currentColor"><g xmlns="http://www.w3.org/2000/svg"><path d="M16.238,69.221c-2.861,7.646-5.035-23.379,1.227-29.467c0.124,3.205,1.203,3.803,2.01,6.627   c1.631-5.386,1.773-11.406,3.951-16.665c2.071-5.004,4.641-8.813,8.764-12.097c0.756,1.269,1.221,2.633,1.957,3.866   C38.679,5.734,55.402,7.111,66.637,0c0.372,2.816-1.193,5.962-1.49,8.763c-0.331,3.108-0.401,6.089-1.54,8.94   c-2.854,7.146-8.21,8.858-13.702,13.127c2.551-0.254,4.816-0.626,7.418-0.709c-4.278,1.021-4.527,5.329-6.11,8.227   c-2.351,4.303-5.308,4.836-9.206,6.949c2.374-0.488,5.678,0.698,7.334,2.185c-5.66,3.822-6.623,10.742-11.574,14.954   c-4.041,3.44-14.17,6.236-15.429,11.627l-9.261,16.238c0,0,17.01-56.831,36.569-70.855C49.646,19.445,35.067,18.889,16.238,69.221z   "/><g><path d="M17.18,96c-2.063,0-4.154-0.689-5.998-2.848c-0.732-0.857-0.631-2.146,0.227-2.879c0.858-0.734,2.147-0.632,2.88,0.227    c1.749,2.047,3.542,1.685,7.517,0.302c0.775-0.271,1.578-0.55,2.392-0.784c2.288-0.659,4.58-1.396,6.796-2.108    c6.469-2.08,13.158-4.231,20.396-4.649c2.004-0.104,3.694,0.566,5.189,1.166c0.838,0.337,1.631,0.654,2.411,0.813    c2.658,0.54,4.699,0.688,6.24,0.449c1.946-0.302,3.855-1.731,5.701-3.115c0.644-0.483,1.276-0.956,1.905-1.386    c0.313-0.212,0.641-0.442,0.981-0.684c2.698-1.896,6.057-4.274,9.636-3.926c1.123,0.104,1.949,1.099,1.846,2.223    s-1.1,1.947-2.223,1.846c-2.092-0.203-4.76,1.688-6.908,3.2c-0.357,0.251-0.702,0.494-1.03,0.718    c-0.581,0.396-1.164,0.834-1.757,1.277c-2.143,1.605-4.571,3.426-7.527,3.884c-2.027,0.313-4.539,0.155-7.679-0.482    c-1.146-0.233-2.149-0.637-3.12-1.026c-1.256-0.505-2.344-0.94-3.432-0.878c-6.718,0.388-12.868,2.366-19.379,4.46    c-2.246,0.722-4.568,1.468-6.916,2.145c-0.725,0.209-1.453,0.465-2.182,0.718C21.388,95.272,19.299,96,17.18,96z"/></g></g></g></svg>